<?xml version="1.0" encoding="UTF-8" standalone="no"?>
<!-- Created with Inkscape (http://www.inkscape.org/) -->

<svg
   width="64"
   height="64"
   viewBox="0 0 512 512"
   version="1.1"
   id="svg1"
   xml:space="preserve"
   inkscape:version="1.4.2 (ebf0e94, 2025-05-08)"
   sodipodi:docname="Modsharp-test5.svg"
   xmlns:inkscape="http://www.inkscape.org/namespaces/inkscape"
   xmlns:sodipodi="http://sodipodi.sourceforge.net/DTD/sodipodi-0.dtd"
   xmlns:xlink="http://www.w3.org/1999/xlink"
   xmlns="http://www.w3.org/2000/svg"
   xmlns:svg="http://www.w3.org/2000/svg"><sodipodi:namedview
     id="namedview1"
     pagecolor="#ffffff"
     bordercolor="#111111"
     borderopacity="1"
     inkscape:showpageshadow="0"
     inkscape:pageopacity="0"
     inkscape:pagecheckerboard="1"
     inkscape:deskcolor="#d1d1d1"
     inkscape:document-units="px"
     inkscape:zoom="1.4142136"
     inkscape:cx="256.3262"
     inkscape:cy="256.3262"
     inkscape:window-width="1920"
     inkscape:window-height="1009"
     inkscape:window-x="-8"
     inkscape:window-y="-8"
     inkscape:window-maximized="1"
     inkscape:current-layer="layer1" /><defs
     id="defs1"><linearGradient
       id="swatch37"
       inkscape:swatch="solid"><stop
         style="stop-color:#000000;stop-opacity:1;"
         offset="0"
         id="stop37" /></linearGradient><linearGradient
       id="swatch26"
       inkscape:swatch="solid"><stop
         style="stop-color:#000000;stop-opacity:1;"
         offset="0"
         id="stop26" /></linearGradient><linearGradient
       id="linearGradient9"
       inkscape:collect="always"><stop
         style="stop-color:#ffffff;stop-opacity:1;"
         offset="0"
         id="stop10" /><stop
         style="stop-color:#ffffff;stop-opacity:1;"
         offset="1"
         id="stop9" /></linearGradient><style
       id="style1">.cls-1{fill:#5c2d91;}.cls-2,.cls-3{fill:#fff;}.cls-2{opacity:0.1;}.cls-4{fill:#f2f2f2;}</style><linearGradient
       inkscape:collect="always"
       xlink:href="#linearGradient9"
       id="linearGradient10"
       x1="237.53821"
       y1="232.3162"
       x2="344.88946"
       y2="232.3162"
       gradientUnits="userSpaceOnUse" /><filter
       style="color-interpolation-filters:sRGB"
       id="filter13"
       inkscape:label="滤镜1" /><filter
       id="mask-powermask-path-effect58_inverse"
       inkscape:label="filtermask-powermask-path-effect58"
       style="color-interpolation-filters:sRGB"
       height="100"
       width="100"
       x="-50"
       y="-50"><feColorMatrix
         id="mask-powermask-path-effect58_primitive1"
         values="1"
         type="saturate"
         result="fbSourceGraphic" /><feColorMatrix
         id="mask-powermask-path-effect58_primitive2"
         values="-1 0 0 0 1 0 -1 0 0 1 0 0 -1 0 1 0 0 0 1 0 "
         in="fbSourceGraphic" /></filter><linearGradient
       inkscape:collect="always"
       xlink:href="#linearGradient9"
       id="linearGradient1"
       gradientUnits="userSpaceOnUse"
       x1="237.53821"
       y1="232.3162"
       x2="344.88946"
       y2="232.3162" /><linearGradient
       inkscape:collect="always"
       xlink:href="#linearGradient9"
       id="linearGradient2"
       gradientUnits="userSpaceOnUse"
       x1="237.53821"
       y1="232.3162"
       x2="344.88946"
       y2="232.3162" /><linearGradient
       inkscape:collect="always"
       xlink:href="#linearGradient9"
       id="linearGradient3"
       gradientUnits="userSpaceOnUse"
       x1="237.53821"
       y1="232.3162"
       x2="344.88946"
       y2="232.3162" /><linearGradient
       inkscape:collect="always"
       xlink:href="#linearGradient9"
       id="linearGradient4"
       gradientUnits="userSpaceOnUse"
       x1="237.53821"
       y1="232.3162"
       x2="344.88946"
       y2="232.3162" /><linearGradient
       inkscape:collect="always"
       xlink:href="#linearGradient9"
       id="linearGradient5"
       gradientUnits="userSpaceOnUse"
       x1="237.53821"
       y1="232.3162"
       x2="344.88946"
       y2="232.3162" /></defs><g
     inkscape:label="引擎标识"
     inkscape:groupmode="layer"
     id="layer1"
     style="display:inline"
     transform="matrix(1.7002681,0,0,1.7002681,-117.04791,-226.1035)"><path
       d="m 299.66718,179.63105 -105.31258,0.55261 c -21.72855,-1.10467 -43.14223,4.18363 -61.65599,14.84166 v 0.0789 c -3.31138,1.80487 -5.52615,5.28037 -5.52615,9.3155 0,5.8812 4.70122,10.65757 10.57862,10.65757 3.06781,0 5.87042,-1.32139 7.81555,-3.39464 23.15025,-12.40772 51.46989,-14.75836 77.60289,-4.02619 46.41778,19.05387 68.63569,72.31892 49.57742,118.7332 -5.11156,12.44731 -12.70339,23.16776 -21.94669,31.81482 l 0.0788,0.0788 c -3.16326,1.84537 -5.28931,5.307 -5.28931,9.23656 0,5.88095 4.77569,10.57862 10.65757,10.57862 3.78172,0 7.11007,-1.98648 8.99972,-4.97353 11.262,-10.58797 20.51631,-23.63093 26.76234,-38.84092 0.43052,-1.03864 43.54623,-106.13727 43.65655,-106.41778 7.36538,-17.93424 -1.24846,-38.42598 -19.18362,-45.78808 -5.53125,-2.26837 -10.60229,-2.52563 -16.81527,-2.4473 z m -4.97354,9.86811 c 0.59251,-0.0408 1.19746,2e-5 1.81574,0 5.4207,6e-5 9.61254,1.47811 12.71013,4.49987 3.09753,3.02186 4.65772,6.79522 4.65776,11.28913 -4e-5,2.55697 -0.45529,4.95143 -1.34207,7.26293 -0.88684,2.31158 -2.2606,4.73185 -4.18409,7.26295 -1.274,1.6788 -3.54585,4.11199 -6.8682,7.26293 -3.32244,3.15096 -5.42882,5.28251 -6.3156,6.31559 -0.88684,1.03312 -1.66093,2.01848 -2.21046,2.99991 h 20.92042 v 10.10496 h -36.8673 c 0.39968,-3.82246 1.55409,-7.47227 3.55253,-10.89441 1.99843,-3.42211 5.94636,-7.9223 11.84173,-13.57853 4.74625,-4.57143 7.68872,-7.68836 8.76289,-9.3155 1.44886,-2.24696 2.13149,-4.436 2.13153,-6.63138 -4e-5,-2.42774 -0.63324,-4.30075 -1.89468,-5.60509 -1.26154,-1.30424 -2.98714,-1.97357 -5.21037,-1.97362 -2.19829,5e-5 -3.91141,0.68375 -5.21037,2.05257 -1.29899,1.36889 -2.08955,3.61253 -2.28941,6.78925 l -10.49968,-1.02627 c 0.62449,-5.99193 2.62345,-10.33838 5.92088,-12.94697 2.88521,-2.28247 6.43107,-3.58296 10.57862,-3.86832 z"
       id="path17"
       style="display:inline;fill:#f79a10;stroke-width:2.52623"
       inkscape:label="起源2" /></g><g
     id="g32"
     style="fill:url(#linearGradient1);fill-opacity:1;fill-rule:evenodd"
     transform="matrix(2.0399191,0,0,2.0399191,-406.62529,-193.94616)"
     inkscape:label="圆"><circle
       class="cls-1"
       id="circle1"
       style="display:inline"
       inkscape:label="深色"
       transform="matrix(2.1465906,0,0,2.1465906,224.25636,163.28517)"
       r="32"
       cy="32"
       cx="32" /><path
       class="cls-2"
       d="M 9.82,9 A 32,32 0 1 0 55,54.18 Z"
       id="path1"
       style="display:inline;fill:#ffffff;fill-opacity:1;stroke-width:1.00019;stroke-dasharray:none"
       mask="none"
       inkscape:label="浅色"
       transform="matrix(2.1465906,0,0,2.1465906,224.25636,163.28517)" /></g><g
     id="g9"
     inkscape:label=".NET"
     style="opacity:1;fill:url(#linearGradient10);fill-opacity:1;fill-rule:evenodd;stroke:none;stroke-opacity:1;paint-order:fill markers stroke"
     transform="matrix(2.0399191,0,0,2.0399191,-406.62529,-193.94616)"><path
       class="cls-3"
       d="M 56.197539,24.848367 H 50.89754 V 41.148368 H 48.767543 V 24.848367 h -5.240002 v -1.930001 h 12.669998 z"
       id="path6"
       style="display:inline;opacity:1;mix-blend-mode:normal;fill:url(#linearGradient2);fill-opacity:1;fill-rule:evenodd;stroke:none;stroke-width:1.00019;stroke-dasharray:none;stroke-opacity:1;paint-order:fill markers stroke"
       transform="matrix(2.1465906,0,0,2.1465906,224.25635,163.28517)"
       inkscape:label="T" /><path
       class="cls-3"
       d="m 41.887541,41.148367 h -9.69 v -18.23 h 9.24 v 1.93 h -7.06 v 6.06 h 6.58 v 1.92 h -6.58 v 6.32 h 7.52 z"
       id="path4"
       style="display:inline;fill:url(#linearGradient3);fill-opacity:1;fill-rule:evenodd;stroke:none;stroke-width:1.00019;stroke-dasharray:none;stroke-opacity:1;paint-order:fill markers stroke"
       mask="none"
       transform="matrix(2.1465906,0,0,2.1465906,224.25635,163.28517)"
       inkscape:label="E" /><path
       class="cls-3"
       d="m 27.467541,41.148367 h -2.62 l -9.37,-14.54 a 6,6 0 0 1 -0.58,-1.14 h -0.08 a 18.72,18.72 0 0 1 0.1,2.5 v 13.18 h -2.13 v -18.23 h 2.77 l 9.12,14.28 q 0.57,0.89 0.74,1.22 h 0.05 a 19.28,19.28 0 0 1 -0.13,-2.68 v -12.82 h 2.13 z"
       id="path3"
       style="display:inline;fill:url(#linearGradient4);fill-opacity:1;fill-rule:evenodd;stroke:none;stroke-width:1.00019;stroke-dasharray:none;stroke-opacity:1;paint-order:fill markers stroke"
       mask="none"
       transform="matrix(2.1465906,0,0,2.1465906,224.25635,163.28517)"
       inkscape:label="N" /><path
       class="cls-3"
       d="m 7.5975413,41.398367 a 1.35,1.35 0 0 1 -1,-0.42 1.38,1.38 0 0 1 -0.41,-1 1.4,1.4 0 0 1 0.41,-1 1.34,1.34 0 0 1 1,-0.43 1.37,1.37 0 0 1 1,0.43 1.39,1.39 0 0 1 0.42,1 1.37,1.37 0 0 1 -0.42,1 1.38,1.38 0 0 1 -1,0.42 z"
       id="path2"
       style="display:inline;fill:url(#linearGradient5);fill-opacity:1;fill-rule:evenodd;stroke:none;stroke-width:1.00019;stroke-dasharray:none;stroke-opacity:1;paint-order:fill markers stroke"
       mask="none"
       transform="matrix(2.1465906,0,0,2.1465906,224.25635,163.28517)"
       inkscape:label="." /></g></svg>
